<svg width="16" height="16" viewBox="0 0 16 16" fill="none" xmlns="http://www.w3.org/2000/svg">
<path fill-rule="evenodd" clip-rule="evenodd" d="M14.6667 16H1.33333C0.597333 16 0 15.404 0 14.6667V1.33333C0 0.597333 0.597333 0 1.33333 0H14.6667C15.404 0 16 0.597333 16 1.33333V14.6667C16 15.404 15.404 16 14.6667 16ZM14.6667 14H10.6493V8.66667H12.6667L13.3333 6.66667H10.6667L10.6533 5.64C10.6533 5.08533 10.7387 4.66533 11.3333 4.66667H13.3333L13.32 2.66667H10.6667C8.54133 2.66667 8 3.60133 8 5.33333V6.66667H6.66667L6.67333 8.66667H8V14H1.33333V14.6667H14.6667V14Z" fill="white"/>
</svg>
