<svg width="16" height="16" viewBox="0 0 16 16" fill="none" xmlns="http://www.w3.org/2000/svg">
<path d="M9.49555 5H6.50441C5.67481 5 5 5.67478 5 6.50442V9.49533C5 10.325 5.67481 11 6.50441 11H9.49555C10.3252 11 11 10.325 11 9.49533V6.50442C11 5.67478 10.3252 5 9.49555 5ZM7.99998 9.66734C7.0806 9.66734 6.33249 8.91926 6.33249 7.99983C6.33249 7.0803 7.0806 6.33222 7.99998 6.33222C8.91936 6.33222 9.66747 7.0803 9.66747 7.99983C9.66747 8.91926 8.91936 9.66734 7.99998 9.66734ZM9.98662 6.29425C9.86726 6.29425 9.77045 6.19744 9.77045 6.0781C9.77045 5.95874 9.86726 5.86199 9.98662 5.86199C10.106 5.86199 10.2027 5.95874 10.2027 6.0781C10.2027 6.19744 10.106 6.29425 9.98662 6.29425Z" fill="white"/>
<path d="M14.3368 0H1.66313C0.746102 0 0 0.74612 0 1.66317V14.3371C0 15.2542 0.746102 16 1.66313 16H14.3368C15.2539 16 16 15.2542 16 14.3371V1.66317C15.9999 0.74612 15.2539 0 14.3368 0ZM1.57809 11.568V10.6458C1.57809 10.5339 1.66878 10.4432 1.78065 10.4432C1.89252 10.4432 1.98321 10.5339 1.98321 10.6458V11.568C1.98321 11.6798 1.89252 11.7702 1.78065 11.7702C1.66878 11.7702 1.57809 11.6798 1.57809 11.568ZM1.78065 3.05909C1.89252 3.05909 1.98321 3.14978 1.98321 3.26166V8.93456C1.98321 9.04646 1.89252 9.13719 1.78065 9.13719C1.66878 9.13719 1.57809 9.04646 1.57809 8.93456V3.26166C1.57809 3.14978 1.66878 3.05909 1.78065 3.05909ZM12.1166 9.85048C12.1166 11.1001 11.0998 12.1166 9.85027 12.1166H6.1499C4.90041 12.1166 3.88366 11.1001 3.88366 9.85048V6.15014C3.88366 4.90053 4.90041 3.88375 6.1499 3.88375H9.85027C11.0998 3.88375 12.1166 4.90053 12.1166 6.15014V9.85048Z" fill="white"/>
</svg>
