<svg width="165" height="27" viewBox="0 0 165 27" fill="none" xmlns="http://www.w3.org/2000/svg">
<path d="M47.3188 18V9.46875H49.8383C50.5922 9.46875 51.2602 9.63672 51.8422 9.97266C52.4281 10.3086 52.8813 10.7852 53.2016 11.4023C53.5219 12.0195 53.682 12.7266 53.682 13.5234V13.9512C53.682 14.7598 53.5199 15.4707 53.1957 16.084C52.8754 16.6973 52.4164 17.1699 51.8188 17.502C51.225 17.834 50.5434 18 49.7738 18H47.3188ZM48.8012 10.6641V16.8164H49.768C50.5453 16.8164 51.141 16.5742 51.5551 16.0898C51.973 15.6016 52.1859 14.9023 52.1938 13.9922V13.5176C52.1938 12.5918 51.9926 11.8848 51.5902 11.3965C51.1879 10.9082 50.6039 10.6641 49.8383 10.6641H48.8012ZM61.0051 16.0137H57.7004L57.009 18H55.468L58.6906 9.46875H60.0207L63.2492 18H61.7023L61.0051 16.0137ZM58.1164 14.8184H60.5891L59.3527 11.2793L58.1164 14.8184ZM72.1895 18H70.707L66.9043 11.9473V18H65.4219V9.46875H66.9043L70.7188 15.5449V9.46875H72.1895V18ZM76.7059 18H75.2293V9.46875H76.7059V18ZM84.7145 14.1914H81.2105V16.8164H85.3063V18H79.7281V9.46875H85.2652V10.6641H81.2105V13.0195H84.7145V14.1914ZM89.1957 16.8164H93.0688V18H87.7133V9.46875H89.1957V16.8164ZM106.367 18H104.891V14.209H101.076V18H99.5938V9.46875H101.076V13.0195H104.891V9.46875H106.367V18ZM114.311 14.1914H110.807V16.8164H114.903V18H109.325V9.46875H114.862V10.6641H110.807V13.0195H114.311V14.1914ZM120.445 14.7129H118.793V18H117.31V9.46875H120.31C121.295 9.46875 122.054 9.68945 122.589 10.1309C123.125 10.5723 123.392 11.2109 123.392 12.0469C123.392 12.6172 123.254 13.0957 122.976 13.4824C122.703 13.8652 122.32 14.1602 121.828 14.3672L123.744 17.9238V18H122.156L120.445 14.7129ZM118.793 13.5234H120.316C120.816 13.5234 121.207 13.3984 121.488 13.1484C121.769 12.8945 121.91 12.5488 121.91 12.1113C121.91 11.6543 121.779 11.3008 121.517 11.0508C121.259 10.8008 120.873 10.6719 120.357 10.6641H118.793V13.5234ZM129.133 14.7129H127.481V18H125.998V9.46875H128.998C129.983 9.46875 130.743 9.68945 131.278 10.1309C131.813 10.5723 132.08 11.2109 132.08 12.0469C132.08 12.6172 131.942 13.0957 131.664 13.4824C131.391 13.8652 131.008 14.1602 130.516 14.3672L132.432 17.9238V18H130.844L129.133 14.7129ZM127.481 13.5234H129.004C129.504 13.5234 129.895 13.3984 130.176 13.1484C130.457 12.8945 130.598 12.5488 130.598 12.1113C130.598 11.6543 130.467 11.3008 130.205 11.0508C129.948 10.8008 129.561 10.6719 129.045 10.6641H127.481V13.5234ZM136.609 9.46875L139.07 16.0078L141.525 9.46875H143.441V18H141.964V15.1875L142.111 11.4258L139.591 18H138.53L136.017 11.4316L136.163 15.1875V18H134.687V9.46875H136.609ZM151.279 16.0137H147.975L147.283 18H145.742L148.965 9.46875H150.295L153.523 18H151.977L151.279 16.0137ZM148.391 14.8184H150.863L149.627 11.2793L148.391 14.8184ZM162.464 18H160.981L157.179 11.9473V18H155.696V9.46875H157.179L160.993 15.5449V9.46875H162.464V18Z" fill="white"/>
<path d="M25.8 21.35H28C28.53 21.3484 29.0377 21.1372 29.4125 20.7624C29.7872 20.3877 29.9984 19.8799 30 19.35V8.34997C29.9984 7.82003 29.7872 7.31224 29.4125 6.93751C29.0377 6.56278 28.53 6.35156 28 6.34998H12.2V9.19997H25.2C25.73 9.20156 26.2377 9.41278 26.6125 9.78751C26.9872 10.1622 27.1984 10.67 27.2 11.2V16.4C27.2 17.254 26.557 17.985 25.8 18.27" fill="white"/>
<path d="M20.9 18.4H5.8V9.19997H7.2V6.34998H0V9.19997C0.60943 9.20182 1.19337 9.44473 1.62431 9.87567C2.05524 10.3066 2.29815 10.8905 2.3 11.5V16.1C2.29815 16.7094 2.05524 17.2933 1.62431 17.7243C1.19337 18.1552 0.60943 18.3981 0 18.4L0 21.35H20.9V18.4Z" fill="white"/>
<path d="M26.95 1.7C27.1011 1.70018 27.2519 1.71525 27.4 1.745V0H19.1V1.8C19.4156 1.70472 19.7482 1.67994 20.0744 1.7274C20.4005 1.77486 20.7123 1.89341 20.9876 2.07466C21.2629 2.25591 21.4951 2.49543 21.6676 2.77629C21.8401 3.05715 21.9488 3.37249 21.986 3.7H24.714C24.7757 3.15008 25.0378 2.64215 25.4503 2.27323C25.8627 1.9043 26.3966 1.70024 26.95 1.7Z" fill="white"/>
<path d="M26.95 25.3C26.4691 25.3 26.0008 25.1459 25.6139 24.8603C25.2269 24.5746 24.9417 24.1726 24.8 23.713V12.4H11.1V3.287C11.2417 2.82743 11.5269 2.42536 11.9139 2.13975C12.3008 1.85414 12.7691 1.70002 13.25 1.7C13.4011 1.70018 13.5518 1.71525 13.7 1.745V0H5.39999V1.8C5.96848 1.62815 6.58186 1.68803 7.10638 1.96659C7.63089 2.24514 8.024 2.71978 8.19999 3.287V15.3H21.9V23.713C21.7583 24.1726 21.473 24.5746 21.0861 24.8603C20.6992 25.1459 20.2309 25.3 19.75 25.3C19.5989 25.2998 19.4482 25.2847 19.3 25.255V27H27.6V25.2C27.3894 25.265 27.1704 25.2987 26.95 25.3Z" fill="white"/>
<path d="M6.05001 25.3C5.89889 25.2998 5.74816 25.2847 5.60001 25.255V27H13.9V25.2C13.5845 25.2953 13.2518 25.3201 12.9257 25.2726C12.5995 25.2251 12.2877 25.1066 12.0124 24.9253C11.7371 24.7441 11.505 24.5046 11.3324 24.2237C11.1599 23.9428 11.0512 23.6275 11.014 23.3H8.28601C8.2243 23.8499 7.96219 24.3578 7.54974 24.7268C7.13728 25.0957 6.60338 25.2998 6.05001 25.3Z" fill="white"/>
</svg>
